<?xml version="1.0" encoding="UTF-8" standalone="no"?>
<!-- Created with Inkscape (http://www.inkscape.org/) -->

<svg
   xmlns:dc="http://purl.org/dc/elements/1.1/"
   xmlns:cc="http://creativecommons.org/ns#"
   xmlns:rdf="http://www.w3.org/1999/02/22-rdf-syntax-ns#"
   xmlns:svg="http://www.w3.org/2000/svg"
   xmlns="http://www.w3.org/2000/svg"
   xmlns:inkscape="http://www.inkscape.org/namespaces/inkscape"
   version="1.1"
   width="605"
   height="288.75"
   id="svg2"
   xml:space="preserve"><metadata
     id="metadata8"><rdf:RDF><cc:Work
         rdf:about=""><dc:format>image/svg+xml</dc:format><dc:type
           rdf:resource="http://purl.org/dc/dcmitype/StillImage" /></cc:Work></rdf:RDF></metadata><defs
     id="defs6"><clipPath
       id="clipPath18"><path
         d="M 0,0 484,0 484,231 0,231 0,0 z"
         inkscape:connector-curvature="0"
         id="path20" /></clipPath></defs><g
     transform="matrix(1.25,0,0,-1.25,0,288.75)"
     id="g10"><g
       id="g12" /><g
       id="g14"><g
         clip-path="url(#clipPath18)"
         id="g16"><path
           d="m -41.5,378.5 576,0 0,-733 -576,0 0,733 z"
           inkscape:connector-curvature="0"
           id="path22"
           style="fill:#ffffff;fill-opacity:1;fill-rule:nonzero;stroke:none" /><path
           d="m 256.5,163.5 216.4434,0 c 4.9706,0 9,-4.0294 9,-9 l 0,-143.75 c 0,-4.970563 -4.0294,-9 -9,-9 L 256.5,1.75 c -4.9706,0 -9,4.029437 -9,9 0,0 0,0 0,0 l 0,143.75 c 0,4.9706 4.0294,9 9,9 0,0 0,0 0,0 z"
           inkscape:connector-curvature="0"
           id="path24"
           style="fill:#ffffff;fill-opacity:1;fill-rule:nonzero;stroke:none" /><g
           transform="matrix(1,0,0,-1,-40.5,377.5)"
           id="g26"><path
             d="m 297,214 216.4434,0 c 4.9706,0 9,4.0294 9,9 l 0,143.75 c 0,4.9706 -4.0294,9 -9,9 L 297,375.75 c -4.9706,0 -9,-4.0294 -9,-9 0,0 0,0 0,0 L 288,223 c 0,-4.9706 4.0294,-9 9,-9 0,0 0,0 0,0 z"
             inkscape:connector-curvature="0"
             id="path28"
             style="fill:none;stroke:#000000;stroke-width:2;stroke-linecap:round;stroke-linejoin:round;stroke-miterlimit:10;stroke-opacity:1;stroke-dasharray:none" /></g><g
           transform="matrix(1,0,0,-1,364.2217,83.125)"
           id="g30"><text
             transform="translate(-20.0127,73.375)"
             id="text32"><tspan
               x="0 8.6664 15.3408 22.0152 28.6896 32.028"
               y="0"
               id="tspan34"
               style="font-size:12px;font-variant:normal;font-weight:normal;writing-mode:lr-tb;fill:#000000;fill-opacity:1;fill-rule:nonzero;stroke:none;font-family:Helvetica;-inkscape-font-specification:Helvetica">Node B</tspan></text>
</g><path
           d="m 11.5,163.5 216.4434,0 c 4.9706,0 9,-4.0294 9,-9 l 0,-143.75 c 0,-4.970563 -4.0294,-9 -9,-9 L 11.5,1.75 c -4.970563,0 -9,4.029437 -9,9 0,0 0,0 0,0 l 0,143.75 c 0,4.9706 4.029437,9 9,9 0,0 0,0 0,0 z"
           inkscape:connector-curvature="0"
           id="path36"
           style="fill:#ffffff;fill-opacity:1;fill-rule:nonzero;stroke:none" /><g
           transform="matrix(1,0,0,-1,-40.5,377.5)"
           id="g38"><path
             d="m 52,214 216.4434,0 c 4.9706,0 9,4.0294 9,9 l 0,143.75 c 0,4.9706 -4.0294,9 -9,9 L 52,375.75 c -4.97056,0 -9,-4.0294 -9,-9 0,0 0,0 0,0 L 43,223 c 0,-4.9706 4.02944,-9 9,-9 0,0 0,0 0,0 z"
             inkscape:connector-curvature="0"
             id="path40"
             style="fill:none;stroke:#000000;stroke-width:2;stroke-linecap:round;stroke-linejoin:round;stroke-miterlimit:10;stroke-opacity:1;stroke-dasharray:none" /></g><g
           transform="matrix(1,0,0,-1,119.2217,83.125)"
           id="g42"><text
             transform="translate(-19.68457,73.375)"
             id="text44"><tspan
               x="0 8.6664 15.3408 22.0152 28.6896 31.368"
               y="0"
               id="tspan46"
               style="font-size:12px;font-variant:normal;font-weight:normal;writing-mode:lr-tb;fill:#000000;fill-opacity:1;fill-rule:nonzero;stroke:none;font-family:Helvetica;-inkscape-font-specification:Helvetica">Node A</tspan></text>
</g><g
           transform="matrix(1,0,0,-1,-40.5,377.5)"
           id="g48"><path
             d="m 46.94342,325 70.49998,0 0,26 -70.49998,0 0,-26 z"
             inkscape:connector-curvature="0"
             id="path50"
             style="fill:none;stroke:#000000;stroke-width:1;stroke-linecap:round;stroke-linejoin:round;stroke-miterlimit:10;stroke-opacity:1;stroke-dasharray:none" /></g><g
           transform="matrix(1,0,0,-1,41.19342,40)"
           id="g52"><text
             transform="translate(-29.45654,3.5)"
             id="text54"><tspan
               x="0 7.4970002 12.5028 17.5086 20.5056 23.7006 28.2006 33.206402 37.706402 42.7122 47.717999 52.723801 55.9188"
               y="0"
               id="tspan56"
               style="font-size:9px;font-variant:normal;font-weight:normal;writing-mode:lr-tb;fill:#000000;fill-opacity:1;fill-rule:nonzero;stroke:none;font-family:Helvetica;-inkscape-font-specification:Helvetica">map(&quot;Joseph&quot;)</tspan></text>
</g><g
           transform="matrix(1,0,0,-1,-40.5,377.5)"
           id="g58"><path
             d="m 124.3517,325 70.5,0 0,26 -70.5,0 0,-26 z"
             inkscape:connector-curvature="0"
             id="path60"
             style="fill:none;stroke:#000000;stroke-width:1;stroke-linecap:round;stroke-linejoin:round;stroke-miterlimit:10;stroke-opacity:1;stroke-dasharray:none" /></g><g
           transform="matrix(1,0,0,-1,118.6017,40)"
           id="g62"><text
             transform="translate(-26.20239,3.5)"
             id="text64"><tspan
               x="0 7.4970002 12.5028 17.5086 20.5056 23.7006 28.2006 33.206402 36.2034 41.209202 46.215 49.41"
               y="0"
               id="tspan66"
               style="font-size:9px;font-variant:normal;font-weight:normal;writing-mode:lr-tb;fill:#000000;fill-opacity:1;fill-rule:nonzero;stroke:none;font-family:Helvetica;-inkscape-font-specification:Helvetica">map(&quot;Jared&quot;)</tspan></text>
</g><g
           transform="matrix(1,0,0,-1,-40.5,377.5)"
           id="g68"><path
             d="m 201.7601,325 70.5,0 0,26 -70.5,0 0,-26 z"
             inkscape:connector-curvature="0"
             id="path70"
             style="fill:none;stroke:#000000;stroke-width:1;stroke-linecap:round;stroke-linejoin:round;stroke-miterlimit:10;stroke-opacity:1;stroke-dasharray:none" /></g><g
           transform="matrix(1,0,0,-1,196.0101,40)"
           id="g72"><text
             transform="translate(-28.70508,3.5)"
             id="text74"><tspan
               x="0 7.4970002 12.5028 17.5086 20.5056 23.7006 28.2006 33.206402 36.2034 41.209202 46.215 51.220798 54.415798"
               y="0"
               id="tspan76"
               style="font-size:9px;font-variant:normal;font-weight:normal;writing-mode:lr-tb;fill:#000000;fill-opacity:1;fill-rule:nonzero;stroke:none;font-family:Helvetica;-inkscape-font-specification:Helvetica">map(&quot;Jordan&quot;)</tspan></text>
</g><g
           transform="matrix(1,0,0,-1,-40.5,377.5)"
           id="g78"><path
             d="m 291.4057,325 70.2861,0 0,26 -70.2861,0 0,-26 z"
             inkscape:connector-curvature="0"
             id="path80"
             style="fill:none;stroke:#000000;stroke-width:1;stroke-linecap:round;stroke-linejoin:round;stroke-miterlimit:10;stroke-opacity:1;stroke-dasharray:none" /></g><g
           transform="matrix(1,0,0,-1,285.5488,40)"
           id="g82"><text
             transform="translate(-26.70117,3.5)"
             id="text84"><tspan
               x="0 7.4970002 12.5028 17.5086 20.5056 23.7006 28.2006 33.206402 37.706402 40.2066 42.206402 47.2122 50.4072"
               y="0"
               id="tspan86"
               style="font-size:9px;font-variant:normal;font-weight:normal;writing-mode:lr-tb;fill:#000000;fill-opacity:1;fill-rule:nonzero;stroke:none;font-family:Helvetica;-inkscape-font-specification:Helvetica">map(&quot;Justin&quot;)</tspan></text>
</g><g
           transform="matrix(1,0,0,-1,-40.5,377.5)"
           id="g88"><path
             d="m 368.921,325 70.2861,0 0,26 -70.2861,0 0,-26 z"
             inkscape:connector-curvature="0"
             id="path90"
             style="fill:none;stroke:#000000;stroke-width:1;stroke-linecap:round;stroke-linejoin:round;stroke-miterlimit:10;stroke-opacity:1;stroke-dasharray:none" /></g><g
           transform="matrix(1,0,0,-1,363.064,40)"
           id="g92"><text
             transform="translate(-22.20117,3.5)"
             id="text94"><tspan
               x="0 7.4970002 12.5028 17.5086 20.5056 23.7006 28.2006 33.206402 38.2122 41.4072"
               y="0"
               id="tspan96"
               style="font-size:9px;font-variant:normal;font-weight:normal;writing-mode:lr-tb;fill:#000000;fill-opacity:1;fill-rule:nonzero;stroke:none;font-family:Helvetica;-inkscape-font-specification:Helvetica">map(&quot;Jon&quot;)</tspan></text>
</g><g
           transform="matrix(1,0,0,-1,-40.5,377.5)"
           id="g98"><path
             d="m 446.4363,325 70.2861,0 0,26 -70.2861,0 0,-26 z"
             inkscape:connector-curvature="0"
             id="path100"
             style="fill:none;stroke:#000000;stroke-width:1;stroke-linecap:round;stroke-linejoin:round;stroke-miterlimit:10;stroke-opacity:1;stroke-dasharray:none" /></g><g
           transform="matrix(1,0,0,-1,440.5793,40)"
           id="g102"><text
             transform="translate(-26.70117,3.5)"
             id="text104"><tspan
               x="0 7.4970002 12.5028 17.5086 20.5056 23.7006 28.2006 33.206402 37.706402 42.206402 47.2122 50.4072"
               y="0"
               id="tspan106"
               style="font-size:9px;font-variant:normal;font-weight:normal;writing-mode:lr-tb;fill:#000000;fill-opacity:1;fill-rule:nonzero;stroke:none;font-family:Helvetica;-inkscape-font-specification:Helvetica">map(&quot;Jesse&quot;)</tspan></text>
</g><path
           d="m 6.44342,103.5 225.31668,0 0,-26 -225.31668,0 0,26 z"
           inkscape:connector-curvature="0"
           id="path108"
           style="fill:#ffffff;fill-opacity:1;fill-rule:nonzero;stroke:none" /><g
           transform="matrix(1,0,0,-1,-40.5,377.5)"
           id="g110"><path
             d="m 46.94342,274 225.31668,0 0,26 -225.31668,0 0,-26 z"
             inkscape:connector-curvature="0"
             id="path112"
             style="fill:none;stroke:#000000;stroke-width:1;stroke-linecap:round;stroke-linejoin:round;stroke-miterlimit:10;stroke-opacity:1;stroke-dasharray:none" /></g><g
           transform="matrix(1,0,0,-1,118.6017,91)"
           id="g114"><text
             transform="translate(-45.68848,4)"
             id="text116"><tspan
               x="0 3.9960001 10.6704 17.344801 24.019199 30.019199 36.6936 40.689602 44.023201 47.3568 54.0312 57.364799 60.698399 67.372803 70.706398 74.040001 80.714401 84.047997 87.381599"
               y="0"
               id="tspan118"
               style="font-size:12px;font-variant:normal;font-weight:normal;writing-mode:lr-tb;fill:#000000;fill-opacity:1;fill-rule:nonzero;stroke:none;font-family:Helvetica;-inkscape-font-specification:Helvetica">reduce([ 6, 5, 6 ])</tspan></text>
</g><path
           d="m 251.623,103.5 225.3167,0 0,-26 -225.3167,0 0,26 z"
           inkscape:connector-curvature="0"
           id="path120"
           style="fill:#ffffff;fill-opacity:1;fill-rule:nonzero;stroke:none" /><g
           transform="matrix(1,0,0,-1,-40.5,377.5)"
           id="g122"><path
             d="m 292.123,274 225.3167,0 0,26 -225.3167,0 0,-26 z"
             inkscape:connector-curvature="0"
             id="path124"
             style="fill:none;stroke:#000000;stroke-width:1;stroke-linecap:round;stroke-linejoin:round;stroke-miterlimit:10;stroke-opacity:1;stroke-dasharray:none" /></g><g
           transform="matrix(1,0,0,-1,363.7814,91)"
           id="g126"><text
             transform="translate(-45.68848,4)"
             id="text128"><tspan
               x="0 3.9960001 10.6704 17.344801 24.019199 30.019199 36.6936 40.689602 44.023201 47.3568 54.0312 57.364799 60.698399 67.372803 70.706398 74.040001 80.714401 84.047997 87.381599"
               y="0"
               id="tspan130"
               style="font-size:12px;font-variant:normal;font-weight:normal;writing-mode:lr-tb;fill:#000000;fill-opacity:1;fill-rule:nonzero;stroke:none;font-family:Helvetica;-inkscape-font-specification:Helvetica">reduce([ 6, 3, 5 ])</tspan></text>
</g><g
           transform="matrix(1,0,0,-1,-40.5,377.5)"
           id="g132"><path
             d="m 105.9744,324.7567 48.3763,-26.94"
             inkscape:connector-curvature="0"
             id="path134"
             style="fill:none;stroke:#000000;stroke-width:1;stroke-linecap:round;stroke-linejoin:round;stroke-miterlimit:10;stroke-opacity:1;stroke-dasharray:none" /></g><path
           d="m 120.84,83.57559 -8.4489,-1.27125 2.9192,-5.24198 5.5297,6.51323 z"
           inkscape:connector-curvature="0"
           id="path136"
           style="fill:#000000;fill-opacity:1;fill-rule:nonzero;stroke:none" /><g
           transform="matrix(1,0,0,-1,-40.5,377.5)"
           id="g138"><path
             d="m 161.34,293.9244 -8.4489,1.2713 2.9192,5.2419 5.5297,-6.5132 z"
             inkscape:connector-curvature="0"
             id="path140"
             style="fill:none;stroke:#000000;stroke-width:1;stroke-linecap:butt;stroke-linejoin:miter;stroke-miterlimit:10;stroke-opacity:1;stroke-dasharray:none" /></g><g
           transform="matrix(1,0,0,-1,-40.5,377.5)"
           id="g142"><path
             d="m 164.6955,324.5323 8.8022,-23.2725"
             inkscape:connector-curvature="0"
             id="path144"
             style="fill:none;stroke:#000000;stroke-width:1;stroke-linecap:round;stroke-linejoin:round;stroke-miterlimit:10;stroke-opacity:1;stroke-dasharray:none" /></g><path
           d="m 135.8278,83.72286 -5.6361,-6.42138 5.612,-2.12259 0.0241,8.54397 z"
           inkscape:connector-curvature="0"
           id="path146"
           style="fill:#000000;fill-opacity:1;fill-rule:nonzero;stroke:none" /><g
           transform="matrix(1,0,0,-1,-40.5,377.5)"
           id="g148"><path
             d="m 176.3278,293.7771 -5.6361,6.4214 5.612,2.1226 0.0241,-8.544 z"
             inkscape:connector-curvature="0"
             id="path150"
             style="fill:none;stroke:#000000;stroke-width:1;stroke-linecap:butt;stroke-linejoin:miter;stroke-miterlimit:10;stroke-opacity:1;stroke-dasharray:none" /></g><g
           transform="matrix(1,0,0,-1,-40.5,377.5)"
           id="g152"><path
             d="M 223.3608,324.6504 198.0776,299.9222"
             inkscape:connector-curvature="0"
             id="path154"
             style="fill:none;stroke:#000000;stroke-width:1;stroke-linecap:round;stroke-linejoin:round;stroke-miterlimit:10;stroke-opacity:1;stroke-dasharray:none" /></g><path
           d="m 151.8583,83.17149 3.6217,-7.73846 4.1953,4.28946 -7.817,3.449 z"
           inkscape:connector-curvature="0"
           id="path156"
           style="fill:#000000;fill-opacity:1;fill-rule:nonzero;stroke:none" /><g
           transform="matrix(1,0,0,-1,-40.5,377.5)"
           id="g158"><path
             d="m 192.3583,294.3285 3.6217,7.7385 4.1953,-4.2895 -7.817,-3.449 z"
             inkscape:connector-curvature="0"
             id="path160"
             style="fill:none;stroke:#000000;stroke-width:1;stroke-linecap:butt;stroke-linejoin:miter;stroke-miterlimit:10;stroke-opacity:1;stroke-dasharray:none" /></g><g
           transform="matrix(1,0,0,-1,-40.5,377.5)"
           id="g162"><path
             d="m 352,325 48.3764,-26.9401"
             inkscape:connector-curvature="0"
             id="path164"
             style="fill:none;stroke:#000000;stroke-width:1;stroke-linecap:round;stroke-linejoin:round;stroke-miterlimit:10;stroke-opacity:1;stroke-dasharray:none" /></g><path
           d="m 366.8657,83.33233 -8.4489,-1.27126 2.9191,-5.24198 5.5298,6.51324 z"
           inkscape:connector-curvature="0"
           id="path166"
           style="fill:#000000;fill-opacity:1;fill-rule:nonzero;stroke:none" /><g
           transform="matrix(1,0,0,-1,-40.5,377.5)"
           id="g168"><path
             d="m 407.3657,294.1677 -8.4489,1.2712 2.9191,5.242 5.5298,-6.5132 z"
             inkscape:connector-curvature="0"
             id="path170"
             style="fill:none;stroke:#000000;stroke-width:1;stroke-linecap:butt;stroke-linejoin:miter;stroke-miterlimit:10;stroke-opacity:1;stroke-dasharray:none" /></g><g
           transform="matrix(1,0,0,-1,-40.5,377.5)"
           id="g172"><path
             d="m 410.7212,324.7756 8.8022,-23.2725"
             inkscape:connector-curvature="0"
             id="path174"
             style="fill:none;stroke:#000000;stroke-width:1;stroke-linecap:round;stroke-linejoin:round;stroke-miterlimit:10;stroke-opacity:1;stroke-dasharray:none" /></g><path
           d="m 381.8535,83.4796 -5.6362,-6.42138 5.6121,-2.12259 0.0241,8.54397 z"
           inkscape:connector-curvature="0"
           id="path176"
           style="fill:#000000;fill-opacity:1;fill-rule:nonzero;stroke:none" /><g
           transform="matrix(1,0,0,-1,-40.5,377.5)"
           id="g178"><path
             d="m 422.3535,294.0204 -5.6362,6.4214 5.6121,2.1226 0.0241,-8.544 z"
             inkscape:connector-curvature="0"
             id="path180"
             style="fill:none;stroke:#000000;stroke-width:1;stroke-linecap:butt;stroke-linejoin:miter;stroke-miterlimit:10;stroke-opacity:1;stroke-dasharray:none" /></g><g
           transform="matrix(1,0,0,-1,-40.5,377.5)"
           id="g182"><path
             d="M 469.3864,324.8937 444.1032,300.1655"
             inkscape:connector-curvature="0"
             id="path184"
             style="fill:none;stroke:#000000;stroke-width:1;stroke-linecap:round;stroke-linejoin:round;stroke-miterlimit:10;stroke-opacity:1;stroke-dasharray:none" /></g><path
           d="m 397.884,82.92822 3.6216,-7.73845 4.1953,4.28946 -7.8169,3.44899 z"
           inkscape:connector-curvature="0"
           id="path186"
           style="fill:#000000;fill-opacity:1;fill-rule:nonzero;stroke:none" /><g
           transform="matrix(1,0,0,-1,-40.5,377.5)"
           id="g188"><path
             d="m 438.384,294.5718 3.6216,7.7384 4.1953,-4.2894 -7.8169,-3.449 z"
             inkscape:connector-curvature="0"
             id="path190"
             style="fill:none;stroke:#000000;stroke-width:1;stroke-linecap:butt;stroke-linejoin:miter;stroke-miterlimit:10;stroke-opacity:1;stroke-dasharray:none" /></g><path
           d="m 6.44342,154.5 225.31668,0 0,-26 -225.31668,0 0,26 z"
           inkscape:connector-curvature="0"
           id="path192"
           style="fill:#ffffff;fill-opacity:1;fill-rule:nonzero;stroke:none" /><g
           transform="matrix(1,0,0,-1,-40.5,377.5)"
           id="g194"><path
             d="m 46.94342,223 225.31668,0 0,26 -225.31668,0 0,-26 z"
             inkscape:connector-curvature="0"
             id="path196"
             style="fill:none;stroke:#000000;stroke-width:1;stroke-linecap:round;stroke-linejoin:round;stroke-miterlimit:10;stroke-opacity:1;stroke-dasharray:none" /></g><g
           transform="matrix(1,0,0,-1,118.6017,142)"
           id="g198"><text
             transform="translate(-45.69141,4)"
             id="text200"><tspan
               x="0 3.9960001 10.6704 17.344801 24.019199 30.019199 36.6936 40.689602 44.023201 47.3568 54.0312 60.705601 64.0392 67.372803 74.047203 80.721603 84.055199 87.388802"
               y="0"
               id="tspan202"
               style="font-size:12px;font-variant:normal;font-weight:normal;writing-mode:lr-tb;fill:#000000;fill-opacity:1;fill-rule:nonzero;stroke:none;font-family:Helvetica;-inkscape-font-specification:Helvetica">reduce([ 17, 14 ])</tspan></text>
</g><g
           transform="matrix(1,0,0,-1,-40.5,377.5)"
           id="g204"><path
             d="m 162.079,273.5082 4.1587,-22.6494"
             inkscape:connector-curvature="0"
             id="path206"
             style="fill:none;stroke:#000000;stroke-width:1;stroke-linecap:round;stroke-linejoin:round;stroke-miterlimit:10;stroke-opacity:1;stroke-dasharray:none" /></g><path
           d="m 127.1825,134.5096 -4.3954,-7.3267 5.9013,-1.0835 -1.5059,8.4102 z"
           inkscape:connector-curvature="0"
           id="path208"
           style="fill:#000000;fill-opacity:1;fill-rule:nonzero;stroke:none" /><g
           transform="matrix(1,0,0,-1,-40.5,377.5)"
           id="g210"><path
             d="m 167.6825,242.9904 -4.3954,7.3267 5.9013,1.0835 -1.5059,-8.4102 z"
             inkscape:connector-curvature="0"
             id="path212"
             style="fill:none;stroke:#000000;stroke-width:1;stroke-linecap:butt;stroke-linejoin:miter;stroke-miterlimit:10;stroke-opacity:1;stroke-dasharray:none" /></g><g
           transform="matrix(1,0,0,-1,-40.5,377.5)"
           id="g214"><path
             d="M 342.9861,273.8963 197.5364,243.0536"
             inkscape:connector-curvature="0"
             id="path216"
             style="fill:none;stroke:#000000;stroke-width:1;stroke-linecap:round;stroke-linejoin:round;stroke-miterlimit:10;stroke-opacity:1;stroke-dasharray:none" /></g><path
           d="m 149.2104,136.1059 7.2037,-4.5943 1.2446,5.8695 -8.4483,-1.2752 z"
           inkscape:connector-curvature="0"
           id="path218"
           style="fill:#000000;fill-opacity:1;fill-rule:nonzero;stroke:none" /><g
           transform="matrix(1,0,0,-1,-40.5,377.5)"
           id="g220"><path
             d="m 189.7104,241.3941 7.2037,4.5943 1.2446,-5.8695 -8.4483,1.2752 z"
             inkscape:connector-curvature="0"
             id="path222"
             style="fill:none;stroke:#000000;stroke-width:1;stroke-linecap:butt;stroke-linejoin:miter;stroke-miterlimit:10;stroke-opacity:1;stroke-dasharray:none" /></g><g
           transform="matrix(1,0,0,-1,-40.5,377.5)"
           id="g224"><path
             d="M 167.3648,222.5671 189.901,183.5716"
             inkscape:connector-curvature="0"
             id="path226"
             style="fill:none;stroke:#000000;stroke-width:1;stroke-linecap:round;stroke-linejoin:round;stroke-miterlimit:10;stroke-opacity:1;stroke-dasharray:none" /></g><path
           d="m 153.4039,200.855 -6.6004,-5.4255 5.1949,-3.0022 1.4055,8.4277 z"
           inkscape:connector-curvature="0"
           id="path228"
           style="fill:#000000;fill-opacity:1;fill-rule:nonzero;stroke:none" /><g
           transform="matrix(1,0,0,-1,-40.5,377.5)"
           id="g230"><path
             d="m 193.9039,176.645 -6.6004,5.4255 5.1949,3.0022 1.4055,-8.4277 z"
             inkscape:connector-curvature="0"
             id="path232"
             style="fill:none;stroke:#000000;stroke-width:1;stroke-linecap:butt;stroke-linejoin:miter;stroke-miterlimit:10;stroke-opacity:1;stroke-dasharray:none" /></g><g
           transform="matrix(1,0,0,-1,162,217)"
           id="g234"><text
             transform="translate(-24.68262,-3)"
             id="text236"><tspan
               x="0 3.9960001 10.6704 16.670401 23.344801 30.019199 36.6936 42.6936"
               y="0"
               id="tspan238"
               style="font-size:12px;font-variant:normal;font-weight:normal;writing-mode:lr-tb;fill:#000000;fill-opacity:1;fill-rule:nonzero;stroke:none;font-family:Helvetica;-inkscape-font-specification:Helvetica">response</tspan></text>
</g><g
           transform="matrix(1,0,0,-1,162,217)"
           id="g240"><text
             transform="translate(-10.00781,11)"
             id="text242"><tspan
               x="0 3.3336 10.0032 16.6728"
               y="0"
               id="tspan244"
               style="font-size:12px;font-variant:normal;font-weight:normal;writing-mode:lr-tb;fill:#000000;fill-opacity:1;fill-rule:nonzero;stroke:none;font-family:Helvetica;-inkscape-font-specification:Helvetica">[31]</tspan></text>
</g><g
           transform="matrix(1,0,0,-1,-40.5,377.5)"
           id="g246"><path
             d="m 132.7498,175 6.5882,28.3814"
             inkscape:connector-curvature="0"
             id="path248"
             style="fill:none;stroke:#000000;stroke-width:1;stroke-linecap:round;stroke-linejoin:round;stroke-miterlimit:10;stroke-opacity:1;stroke-dasharray:none" /></g><path
           d="m 100.6469,166.3258 1.1134,8.4712 -5.84461,-1.3567 4.73121,-7.1145 z"
           inkscape:connector-curvature="0"
           id="path250"
           style="fill:#000000;fill-opacity:1;fill-rule:nonzero;stroke:none" /><g
           transform="matrix(1,0,0,-1,-40.5,377.5)"
           id="g252"><path
             d="m 141.1469,211.1742 1.1134,-8.4712 -5.8446,1.3567 4.7312,7.1145 z"
             inkscape:connector-curvature="0"
             id="path254"
             style="fill:none;stroke:#000000;stroke-width:1;stroke-linecap:butt;stroke-linejoin:miter;stroke-miterlimit:10;stroke-opacity:1;stroke-dasharray:none" /></g><g
           transform="matrix(1,0,0,-1,88.5,217)"
           id="g256"><text
             transform="translate(-20.0127,-3)"
             id="text258"><tspan
               x="0 3.9960001 10.6704 17.344801 24.019199 30.6936 36.6936"
               y="0"
               id="tspan260"
               style="font-size:12px;font-variant:normal;font-weight:normal;writing-mode:lr-tb;fill:#000000;fill-opacity:1;fill-rule:nonzero;stroke:none;font-family:Helvetica;-inkscape-font-specification:Helvetica">request</tspan></text>
</g><g
           transform="matrix(1,0,0,-1,88.5,217)"
           id="g262"><text
             transform="translate(-30.01758,11)"
             id="text264"><tspan
               x="0 9.9960003 16.670401 23.344801 27.340799 34.015202 40.689602 47.363998 53.363998"
               y="0"
               id="tspan266"
               style="font-size:12px;font-variant:normal;font-weight:normal;writing-mode:lr-tb;fill:#000000;fill-opacity:1;fill-rule:nonzero;stroke:none;font-family:Helvetica;-inkscape-font-specification:Helvetica">mapreduce</tspan></text>
</g></g></g></g></svg>